<?xml version="1.0" standalone="no"?>
<!DOCTYPE svg PUBLIC "-//W3C//DTD SVG 20010904//EN"
 "http://www.w3.org/TR/2001/REC-SVG-20010904/DTD/svg10.dtd">
<svg version="1.0" xmlns="http://www.w3.org/2000/svg"
 width="500.000000pt" height="500.000000pt" viewBox="0 0 500.000000 500.000000"
 preserveAspectRatio="xMidYMid meet">

<g transform="translate(0.000000,500.000000) scale(0.100000,-0.100000)"
fill="#000000" stroke="none">
<path d="M560 2225 l0 -165 45 0 45 0 0 45 c0 41 2 45 25 45 17 0 33 -12 55
-45 30 -43 33 -45 80 -45 l50 0 -35 49 -35 49 30 30 c63 64 27 171 -65 192
-22 5 -75 10 -117 10 l-78 0 0 -165z m193 63 c8 -12 7 -24 -1 -42 -10 -22 -18
-26 -57 -26 l-45 0 0 46 0 45 46 -3 c31 -2 51 -9 57 -20z"/>
<path d="M950 2225 l0 -165 45 0 45 0 0 165 0 165 -45 0 -45 0 0 -165z"/>
<path d="M1235 2374 c-65 -34 -95 -82 -95 -154 0 -133 167 -214 282 -136 37
25 38 35 5 59 -23 18 -26 18 -55 3 -42 -22 -74 -20 -105 4 -56 44 -40 138 26
159 36 12 61 7 90 -17 16 -15 20 -13 49 15 l30 31 -44 26 c-53 31 -135 35
-183 10z"/>
<path d="M1550 2226 l0 -166 45 0 45 0 0 65 0 65 60 0 60 0 0 -65 0 -65 50 0
50 0 -2 163 -3 162 -45 0 -45 0 -3 -62 -3 -63 -59 0 -59 0 -3 63 -3 62 -42 3
-43 3 0 -165z"/>
<path d="M1970 2226 l0 -166 40 0 39 0 3 82 3 83 42 -68 c55 -88 70 -88 120 1
l38 67 3 -82 3 -83 45 0 44 0 -2 163 -3 162 -36 3 c-36 3 -36 2 -93 -93 l-58
-96 -56 93 c-54 88 -59 93 -95 96 l-37 3 0 -165z"/>
<path d="M2525 2368 c-84 -48 -108 -167 -50 -244 36 -46 80 -67 145 -68 176
-2 248 204 107 308 -43 32 -150 34 -202 4z m163 -84 c32 -37 30 -88 -7 -125
-51 -50 -118 -33 -141 36 -31 94 82 162 148 89z"/>
<path d="M2900 2225 l0 -165 45 0 44 0 3 85 3 85 69 -85 c65 -80 72 -85 108
-85 l38 0 0 165 0 165 -45 0 -44 0 -3 -86 -3 -86 -70 86 c-65 80 -73 86 -107
86 l-38 0 0 -165z"/>
<path d="M3328 2384 c-5 -4 -8 -79 -8 -166 l0 -158 103 0 c87 0 110 3 147 23
24 12 52 34 63 48 29 41 33 107 9 162 -30 67 -78 89 -207 95 -55 2 -103 1
-107 -4z m209 -96 c29 -33 35 -57 22 -95 -12 -38 -55 -63 -109 -63 l-30 0 0
90 0 90 48 0 c38 0 53 -5 69 -22z"/>
<path d="M3930 2283 c0 -128 19 -181 72 -209 46 -24 125 -23 168 2 56 32 70
72 70 202 l0 112 -45 0 -45 0 0 -99 c0 -115 -9 -148 -44 -157 -65 -16 -86 25
-86 169 l0 87 -45 0 -45 0 0 -107z"/>
<path d="M4350 2225 l0 -165 45 0 45 0 0 165 0 165 -45 0 -45 0 0 -165z"/>
<path d="M1211 1792 c-1 -54 2 -66 24 -87 29 -30 64 -32 93 -5 19 18 22 30 20
88 l-2 67 -3 -68 c-3 -58 -7 -69 -28 -83 -29 -19 -69 -12 -80 13 -4 10 -11 45
-15 78 l-7 60 -2 -63z"/>
<path d="M1454 1765 c0 -49 1 -71 3 -48 2 23 2 64 0 90 -2 26 -3 8 -3 -42z"/>
<path d="M1696 1834 c-12 -11 -16 -34 -14 -87 l1 -72 6 70 c7 81 14 95 45 95
36 0 46 -19 46 -92 0 -39 4 -68 10 -68 6 0 10 29 10 68 0 73 10 92 46 92 31 0
38 -14 45 -95 l6 -70 1 72 c2 79 -10 103 -53 103 -13 0 -31 -7 -39 -16 -15
-14 -17 -14 -32 0 -8 9 -26 16 -39 16 -13 0 -31 -7 -39 -16z"/>
<path d="M2011 1824 c-17 -21 -21 -40 -19 -88 1 -35 3 -47 5 -28 l4 32 59 0
59 0 4 -32 c2 -18 5 -3 5 35 2 55 -2 71 -18 87 -29 29 -74 26 -99 -6z m91 -1
c10 -9 18 -29 18 -45 0 -29 0 -29 -57 -26 -58 3 -58 3 -55 33 2 16 8 35 14 42
15 18 58 16 80 -4z"/>
<path d="M2230 1765 l0 -85 35 0 c39 0 99 21 110 40 4 6 7 28 7 48 0 52 -37
82 -103 82 l-49 0 0 -85z m120 55 c26 -26 26 -81 0 -105 -10 -9 -40 -20 -65
-22 l-45 -6 0 77 0 76 45 0 c32 0 51 -6 65 -20z"/>
<path d="M2488 1839 c-23 -13 -23 -40 1 -61 14 -12 27 -14 52 -8 l34 8 -36 1
c-45 1 -68 23 -48 47 9 11 26 15 55 12 23 -1 40 0 37 5 -6 10 -75 8 -95 -4z"/>
<path d="M2816 1828 c-11 -16 -16 -43 -14 -88 0 -36 3 -50 5 -32 4 27 8 32 31
32 16 0 40 -13 61 -32 l35 -33 -30 37 c-22 28 -37 37 -61 37 -30 1 -33 4 -33
30 0 35 23 61 54 61 41 0 62 -49 34 -79 -11 -10 -10 -11 5 -6 16 7 22 23 17
55 -5 42 -79 54 -104 18z"/>
<path d="M3034 1765 c0 -49 1 -71 3 -48 2 23 2 64 0 90 -2 26 -3 8 -3 -42z"/>
<path d="M3155 1825 c-35 -34 -33 -78 4 -116 16 -16 38 -29 48 -29 29 0 63 12
63 21 0 5 -11 4 -24 -2 -35 -16 -73 -3 -91 31 -20 39 -19 52 7 85 19 24 26 27
66 22 28 -3 39 -1 31 4 -28 17 -79 10 -104 -16z"/>
<path d="M3373 1765 c0 -49 2 -71 4 -47 l4 42 55 0 54 0 0 -40 c0 -22 5 -40
10 -40 6 0 10 35 10 85 0 50 -4 85 -10 85 -5 0 -10 -18 -10 -40 l0 -40 -54 0
-55 0 -4 43 c-2 23 -4 2 -4 -48z"/>
<path d="M3612 1838 c-14 -14 -16 -44 -3 -52 5 -4 7 2 4 12 -6 24 14 39 57 45
35 4 35 4 -5 5 -23 1 -46 -3 -53 -10z"/>
<path d="M3835 1836 c-16 -11 -20 -28 -21 -87 -1 -41 0 -59 3 -41 4 27 9 32
31 32 15 0 40 -13 62 -32 l35 -33 -29 32 c-27 31 -28 31 -8 42 29 16 37 48 18
76 -19 28 -61 33 -91 11z m71 -4 c19 -13 23 -39 8 -61 -11 -15 -26 -21 -56
-21 -40 0 -40 0 -34 32 3 17 11 37 17 45 12 14 47 17 65 5z"/>
<path d="M3630 1770 c0 -5 14 -7 33 -3 45 8 47 13 4 13 -20 0 -37 -4 -37 -10z"/>
<path d="M2477 1753 c-4 -3 -7 -16 -7 -28 0 -25 46 -50 77 -42 14 4 13 5 -5 6
-42 2 -64 20 -58 47 7 25 4 29 -7 17z"/>
<path d="M3604 1746 c-9 -22 -1 -49 16 -54 13 -5 13 -3 1 11 -7 9 -11 26 -8
37 6 23 -1 27 -9 6z"/>
<path d="M3653 1683 c9 -2 23 -2 30 0 6 3 -1 5 -18 5 -16 0 -22 -2 -12 -5z"/>
</g>
</svg>
